                                                                    <svg xmlns="http://www.w3.org/2000/svg" width="224" height="50" viewBox="0 0 224 50" fill="none">
  <path fill-rule="evenodd" clip-rule="evenodd" d="M0 49.975H50.3652V0.780518H0V49.975Z" fill="#204590" class="jblplmiflv-svg-logo-1"></path>
  <path fill-rule="evenodd" clip-rule="evenodd" d="M1.20074 48.8023H49.1645V1.95776H1.20074V48.8023Z" fill="#FEFEFE" class="jblplmiflv-svg-logo-2"></path>
  <path fill-rule="evenodd" clip-rule="evenodd" d="M1.20074 48.8023H49.1645V1.95776H1.20074V48.8023Z" stroke="#204590" class="jblplmiflv-svg-logo-3"></path>
  <path fill-rule="evenodd" clip-rule="evenodd" d="M2.63324 47.6118H47.7272V3.36572H2.63324V47.6118Z" fill="#204590" class="jblplmiflv-svg-logo-4"></path>
  <path fill-rule="evenodd" clip-rule="evenodd" d="M34.8173 20.179C35.4391 15.829 34.7066 7.89779 27.8985 7.33216C26.3307 7.18451 24.676 7.56107 23.0127 8.31107C17.7087 10.7025 13.2409 15.4431 10.2501 21.8884C7.69175 27.1009 3.99868 40.6954 13.8819 43.3548C16.5287 44.0009 21.2402 42.4962 25.4397 38.6407C26.0536 46.8486 35.2425 44.0384 37.7634 38.8923C36.1104 41.8876 25.2796 45.2095 33.4612 28.2415C33.4612 28.2415 40.7669 12.8423 44.2084 15.3658L43.2967 10.7329C43.2967 10.7329 40.3409 9.33841 34.8173 20.179Z" fill="#FEFEFE" class="jblplmiflv-svg-logo-5"></path>
  <path fill-rule="evenodd" clip-rule="evenodd" d="M30.7597 30.2246C26.7888 37.416 20.1408 41.4152 15.8951 39.1606C11.6542 36.9121 11.432 29.2559 15.3958 22.0668C19.3652 14.8785 26.0148 10.8793 30.2605 13.1309C34.5014 15.3848 34.7251 23.041 30.7597 30.2246Z" fill="#204590" class="jblplmiflv-svg-logo-6"></path>
  <path fill-rule="evenodd" clip-rule="evenodd" d="M23.0779 23.2375C24.6059 23.2375 25.8481 24.4563 25.8481 25.9555C25.8481 27.4579 24.6059 28.6774 23.0779 28.6774C21.5443 28.6774 20.2965 27.4579 20.2965 25.9555C20.2989 24.4547 21.5458 23.2375 23.0779 23.2375Z" fill="#FEFEFE" class="jblplmiflv-svg-logo-7"></path>
  <path fill-rule="evenodd" clip-rule="evenodd" d="M70.5574 21.0022L68.046 29.2256H73.2575L70.7763 21.0022H70.5574ZM61.0142 37.7272L68.1081 16.7053H73.5083L80.5712 37.7272H75.706L74.1358 32.6295H67.151L65.5497 37.7272H61.0142Z" fill="#204590" class="jblplmiflv-svg-logo-8"></path>
  <path fill-rule="evenodd" clip-rule="evenodd" d="M83.7669 37.7274H88.1941V15.5962H83.7669V37.7274Z" fill="#204590" class="jblplmiflv-svg-logo-9"></path>
  <path fill-rule="evenodd" clip-rule="evenodd" d="M104.249 30.1805V28.8711C104.249 26.0844 102.962 24.6828 100.938 24.6828C98.9127 24.6828 97.6092 26.1156 97.6092 28.6711V30.5352C97.6092 32.9227 98.9748 34.3695 100.969 34.3695C102.9 34.3695 104.249 33.0297 104.249 30.1805ZM97.8289 35.2016H97.6092V43.1336H93.1827V21.3258H97.5463V23.9281H97.766C98.3784 22.3422 100.043 21.125 102.601 21.125C106.353 21.125 108.785 23.743 108.785 28.518V30.5203C108.785 35.2938 106.336 37.9273 102.554 37.9273C99.9948 37.9273 98.4572 36.7266 97.8289 35.2016Z" fill="#204590" class="jblplmiflv-svg-logo-10"></path>
  <path fill-rule="evenodd" clip-rule="evenodd" d="M112.908 15.5959H117.318V24.1897H117.538C117.9 23.0038 119.28 21.0788 122.482 21.0788C125.732 21.0788 128.008 22.9881 128.008 26.8397V37.7272H123.581V28.0405C123.581 25.6834 122.263 24.8217 120.646 24.8217C118.637 24.8217 117.318 26.2999 117.318 28.6256V37.7272H112.908V15.5959Z" fill="#204590" class="jblplmiflv-svg-logo-11"></path>
  <path fill-rule="evenodd" clip-rule="evenodd" d="M141.784 32.306V30.6427H138.785C137.044 30.6427 136.195 31.4747 136.195 32.645C136.195 34.0466 137.436 34.7552 138.785 34.7552C140.418 34.7552 141.784 33.7388 141.784 32.306ZM131.816 32.9685C131.816 30.0106 133.904 28.056 137.765 28.056H141.784V26.638C141.784 25.1755 140.764 24.4513 139.163 24.4513C137.546 24.4513 136.776 25.145 136.588 26.131H132.429C132.586 23.4661 134.485 21.0786 139.242 21.0786C143.056 21.0786 146.148 22.5731 146.148 26.7778V37.727H141.989V35.6786H141.784C141.157 36.8489 139.775 37.9739 137.311 37.9739C134.061 37.9739 131.816 36.0794 131.816 32.9685Z" fill="#204590" class="jblplmiflv-svg-logo-12"></path>
  <path fill-rule="evenodd" clip-rule="evenodd" d="M171.286 37.7272H158.431V16.7053H161.664V34.7545H171.286V37.7272Z" fill="#204590" class="jblplmiflv-svg-logo-13"></path>
  <path fill-rule="evenodd" clip-rule="evenodd" d="M183.933 32.244V30.4581H180.072C177.952 30.4581 177.043 31.4745 177.043 32.83C177.043 34.5542 178.549 35.4019 180.198 35.4019C182.301 35.4019 183.933 34.0464 183.933 32.244ZM173.84 32.9995C173.84 30.1347 175.865 28.194 179.679 28.194H183.933V26.6542C183.933 24.7597 182.661 23.9128 180.653 23.9128C178.659 23.9128 177.796 24.6519 177.498 25.73H174.468C174.688 23.019 176.838 21.2183 180.747 21.2183C184.232 21.2183 187.104 22.6495 187.104 26.6995V37.7276H184.075V35.6167H183.933C183.164 36.8651 181.704 37.9894 179.256 37.9894C176.053 37.9894 173.84 36.0331 173.84 32.9995Z" fill="#204590" class="jblplmiflv-svg-logo-14"></path>
  <path fill-rule="evenodd" clip-rule="evenodd" d="M203.69 30.4116V28.8256C203.69 25.6686 202.183 23.9741 199.704 23.9741C197.175 23.9741 195.607 25.7139 195.607 28.5178V30.9202C195.607 33.4155 197.286 35.2014 199.766 35.2014C202.073 35.2014 203.69 33.6608 203.69 30.4116ZM195.67 35.278H195.512V37.7272H192.436V15.5959H195.607V24.0358H195.764C196.203 22.6186 197.82 21.2327 200.614 21.2327C204.429 21.2327 206.908 23.8202 206.908 28.317V30.8584C206.908 35.371 204.381 37.9585 200.535 37.9585C197.867 37.9585 196.266 36.7108 195.67 35.278Z" fill="#204590" class="jblplmiflv-svg-logo-15"></path>
  <path fill-rule="evenodd" clip-rule="evenodd" d="M217.09 21.1868C220.685 21.1868 223.118 22.9735 223.118 25.8375H220.229C220.12 24.7594 219.099 23.6204 216.996 23.6204C215.143 23.6204 213.841 24.4665 213.841 25.8844C213.841 27.7165 216.147 27.9469 218.001 28.2704C221.078 28.7946 223.557 29.7493 223.557 32.8297C223.557 36.1102 220.904 38.004 216.823 38.004C213.009 38.004 210.481 36.2641 210.481 33.3688H213.575C213.778 34.693 214.767 35.5399 216.979 35.5399C219.445 35.5399 220.465 34.5086 220.465 33.2149C220.465 31.5055 218.597 31.2282 216.321 30.7969C213.276 30.1961 210.796 29.3797 210.796 26.1766C210.796 22.6657 213.794 21.1868 217.09 21.1868Z" fill="#204590" class="jblplmiflv-svg-logo-16"></path>
</svg>
