<?xml version="1.0" encoding="utf-8"?>
<!-- Generator: Adobe Illustrator 25.4.2, SVG Export Plug-In . SVG Version: 6.00 Build 0)  -->
<svg version="1.1" id="Layer_1" xmlns="http://www.w3.org/2000/svg" xmlns:xlink="http://www.w3.org/1999/xlink" x="0px" y="0px"
	 viewBox="0 0 370 43" style="enable-background:new 0 0 370 43;" xml:space="preserve">
<style type="text/css">
	.st0{fill:#939598;}
	.st1{fill:#231F20;}
	.st2{fill:#E31937;}
	.st3{fill:#0062AC;}
	.st4{fill:#00A057;}
</style>
<rect x="183.46" y="0.5" class="st0" width="0.99" height="39.72"/>
<g>
	<path class="st1" d="M203.31,34.23h0.96c2.01,0,2.45-0.76,2.45-2.85v-6.34l-7.71-13.81c-1.57-2.81-2.09-3.17-4.06-3.17h-0.36v-1.2
		c1.72,0.04,3.41,0.12,5.06,0.12c1.69,0,3.41-0.08,5.1-0.12v1.2h-0.72c-0.84,0-1.49,0.28-1.49,1.29c0,0.56,0.48,1.65,0.88,2.37
		l5.94,10.72l5.54-10.6c0.32-0.6,1.08-2.13,1.08-2.85c0-0.68-0.48-0.92-1.56-0.92h-0.76v-1.2c1.64,0.04,2.73,0.12,3.98,0.12
		c1.32,0,2.69-0.08,3.97-0.12v1.2h-1c-1.65,0-2.01,0.52-3.25,2.85l-7.1,13.29v7.19c0,2.37,0.88,2.85,2.45,2.85h0.8v1.2
		c-1.69-0.04-3.42-0.12-5.1-0.12c-1.77,0-3.61,0.08-5.1,0.12V34.23z"/>
	<path class="st1" d="M239.29,8.02c-5.62,0-10.92,3.45-10.92,12.77c0,6.5,4.26,13.65,11.16,13.65c7.43,0,10.84-5.46,10.84-12.85
		C250.37,15.12,246.32,8.02,239.29,8.02 M239.41,6.33c7.99,0,14.98,6.46,14.98,14.82c0,7.07-5.46,14.82-15.1,14.82
		c-8.67,0-14.94-6.55-14.94-14.49C224.35,12.51,231.5,6.33,239.41,6.33"/>
	<path class="st1" d="M267.59,20.58c0.68,0.24,1.69,0.28,2.73,0.28c3.61,0,6.59-1.65,6.59-5.82c0-1.77-1.21-6.66-6.79-6.66
		c-0.96,0-1.73,0.08-2.53,0.16V20.58z M260.69,34.23h0.72c1.85,0,2.65-0.68,2.65-3.29V11.35c0-2.61-0.8-3.29-2.65-3.29h-0.72v-1.2
		c1.41,0.04,3.33,0.12,5.14,0.12c2.69,0,4.62-0.12,6.39-0.12c7.11,0,8.39,5.58,8.39,7.43c0,5.26-3.69,6.87-5.7,7.51l5.38,8.91
		c2.21,3.62,2.85,3.86,6.1,4.06v0.84c-0.76,0-1.49,0.04-2.25,0.04c-3.54,0-5.18-0.44-7.31-3.93l-4.7-7.67
		c-0.93-1.49-1.45-1.57-4.54-1.65v7.59c0,3.81,0.68,4.26,2.29,4.26h1.16v1.2c-1.77-0.04-3.46-0.12-5.22-0.12
		c-1.8,0-3.73,0.08-5.14,0.12V34.23z"/>
	<path class="st1" d="M292.65,34.23h0.72c1.85,0,2.65-0.68,2.65-3.29v-19.6c0-2.61-0.8-3.29-2.65-3.29h-0.72v-1.2
		c1.41,0.04,3.33,0.12,5.14,0.12c1.77,0,3.46-0.08,5.22-0.12v1.2h-1.16c-1.61,0-2.29,0.44-2.29,4.26v9.44l8.79-9.8
		c0.4-0.44,1.93-2.05,1.93-2.85c0-0.72-0.56-1.04-1.32-1.04h-0.72v-1.2c1.49,0.04,3.17,0.12,4.74,0.12c1.61,0,3.17-0.08,4.78-0.12
		v1.2h-0.72c-1.97,0-2.65,0.36-5.02,2.85l-7.75,8.15l10.36,12.12c2.25,2.65,3.41,3.05,5.06,3.05h0.6v1.2
		c-1.29-0.04-2.61-0.12-3.89-0.12c-1.28,0-2.61,0.08-3.89,0.12c-0.2-1.16-0.32-1.77-2.61-4.37l-8.23-9.44l-2.09,2.21v6.14
		c0,3.81,0.68,4.26,2.29,4.26h1.16v1.2c-1.77-0.04-3.46-0.12-5.22-0.12c-1.8,0-3.73,0.08-5.14,0.12V34.23z"/>
	<path class="st2" d="M354.84,35.97c-6.42,0-11.98-3.97-11.98-12.65V2.69h-14.35v37.85h37.85V26.74
		C365.23,32.24,361.23,35.97,354.84,35.97"/>
	<path class="st2" d="M354.84,28.22c3.45,0,4.5-3.03,4.5-5.99V2.7h-8.81v19.54C350.54,25.32,351.63,28.22,354.84,28.22"/>
	<path class="st3" d="M56.83,30.44c-0.73-0.29-1.13-0.42-1.88-0.42c-0.81,0-1.75,0.29-1.75,1.33c0,1.92,4.31,1.48,4.31,4.78
		c0,2.14-1.65,2.99-3.66,2.99c-0.7,0-1.39-0.21-2.05-0.42l0.14-1.34c0.49,0.2,1.35,0.49,2.08,0.49c0.82,0,1.97-0.46,1.97-1.64
		c0-2.24-4.31-1.62-4.31-4.74c0-1.78,1.41-2.73,3.22-2.73c0.66,0,1.45,0.11,2.14,0.36L56.83,30.44z"/>
	<path class="st3" d="M63.99,32.86c-0.52-0.21-1.03-0.31-1.46-0.31c-1.51,0-2.36,1.35-2.36,2.74c0,1.31,0.7,2.74,2.44,2.74
		c0.46,0,1.03-0.14,1.45-0.42l0.1,1.2c-0.56,0.26-1.21,0.31-1.7,0.31c-2.21,0-3.73-1.74-3.73-3.83c0-2.23,1.49-3.84,3.73-3.84
		c0.55,0,1.25,0.13,1.64,0.29L63.99,32.86z"/>
	<path class="st3" d="M65.71,28.18h1.35v4.49h0.03c0.49-0.78,1.34-1.22,2.35-1.22c1.9,0,2.74,1.18,2.74,3.14v4.35h-1.35v-3.79
		c0-1.71-0.38-2.54-1.55-2.61c-1.54,0-2.22,1.23-2.22,3.01v3.39h-1.35V28.18z"/>
	<path class="st3" d="M77.73,38.03c1.58,0,2.28-1.44,2.28-2.74c0-1.39-0.85-2.74-2.28-2.74c-1.45,0-2.3,1.35-2.3,2.74
		C75.43,36.59,76.13,38.03,77.73,38.03 M77.73,31.46c2.22,0,3.72,1.61,3.72,3.83c0,2.1-1.52,3.83-3.72,3.83
		c-2.21,0-3.73-1.74-3.73-3.83C74,33.06,75.49,31.46,77.73,31.46"/>
	<path class="st3" d="M86.5,38.03c1.58,0,2.28-1.44,2.28-2.74c0-1.39-0.85-2.74-2.28-2.74c-1.45,0-2.3,1.35-2.3,2.74
		C84.21,36.59,84.91,38.03,86.5,38.03 M86.5,31.46c2.22,0,3.72,1.61,3.72,3.83c0,2.1-1.52,3.83-3.72,3.83
		c-2.21,0-3.73-1.74-3.73-3.83C82.77,33.06,84.26,31.46,86.5,31.46"/>
	<rect x="92.21" y="28.18" class="st3" width="1.35" height="10.77"/>
	<path class="st3" d="M103.26,38.03c1.58,0,2.28-1.44,2.28-2.74c0-1.39-0.85-2.74-2.28-2.74c-1.45,0-2.3,1.35-2.3,2.74
		C100.97,36.59,101.67,38.03,103.26,38.03 M103.26,31.46c2.22,0,3.72,1.61,3.72,3.83c0,2.1-1.52,3.83-3.72,3.83
		c-2.21,0-3.73-1.74-3.73-3.83C99.53,33.06,101.03,31.46,103.26,31.46"/>
	<path class="st3" d="M109.67,32.72h-1.72v-1.09h1.72v-0.67c0-1.78,0.46-2.94,2.45-2.94c0.35,0,0.64,0.04,0.91,0.08l-0.06,1.09
		c-0.16-0.06-0.42-0.09-0.65-0.09c-1.16,0-1.31,0.75-1.31,1.74v0.79h1.94v1.09h-1.94v6.23h-1.35V32.72z"/>
	<path class="st3" d="M119.85,37.77h1.08c1.29,0,2.45-0.27,2.45-1.62c0-1.55-1.36-1.76-2.6-1.76h-0.94V37.77z M119.85,33.21h0.79
		c1.4,0,2.57-0.13,2.57-1.61c0-1.19-1.02-1.49-1.85-1.49h-1.51V33.21z M118.41,28.93h2.72c2.08,0,3.51,0.68,3.51,2.53
		c0,1.38-0.8,2.07-2.06,2.38v0.03c1.36,0.12,2.32,1.01,2.32,2.42c0,2.15-1.78,2.67-3.82,2.67h-2.67V28.93z"/>
	<path class="st3" d="M133.62,38.95h-1.3v-1.16h-0.03c-0.4,0.83-1.38,1.34-2.4,1.34c-1.89,0-2.74-1.18-2.74-3.15v-4.35h1.35v3.79
		c0,1.71,0.37,2.54,1.55,2.61c1.53,0,2.23-1.24,2.23-3.02v-3.39h1.35V38.95z"/>
	<path class="st3" d="M135.37,37.51c0.53,0.34,1.29,0.52,1.68,0.52c0.62,0,1.38-0.26,1.38-1.05c0-1.33-3.17-1.22-3.17-3.27
		c0-1.52,1.14-2.25,2.59-2.25c0.63,0,1.15,0.13,1.68,0.29l-0.12,1.18c-0.3-0.19-1.1-0.37-1.42-0.37c-0.69,0-1.29,0.29-1.29,0.89
		c0,1.49,3.17,1.06,3.17,3.4c0,1.57-1.25,2.29-2.56,2.29c-0.69,0-1.39-0.07-2.01-0.4L135.37,37.51z"/>
	<path class="st3" d="M141.68,38.95h1.35v-7.32h-1.35V38.95z M141.59,29.99h1.52v-1.52h-1.52V29.99z"/>
	<path class="st3" d="M145.5,31.63h1.31v1.17h0.03c0.4-0.84,1.38-1.34,2.4-1.34c1.89,0,2.75,1.18,2.75,3.14v4.35h-1.35v-3.79
		c0-1.71-0.37-2.54-1.55-2.61c-1.54,0-2.22,1.23-2.22,3.01v3.39h-1.35V31.63z"/>
	<path class="st3" d="M159.01,34.59c0-1.12-0.66-2.04-1.82-2.04c-1.32,0-1.87,1.09-1.97,2.04H159.01z M159.89,38.65
		c-0.52,0.19-1.11,0.48-2.31,0.48c-2.6,0-3.79-1.58-3.79-3.97c0-2.17,1.37-3.7,3.44-3.7c2.44,0,3.23,1.78,3.23,4.13h-5.23
		c0,1.45,1.14,2.44,2.41,2.44c0.89,0,1.92-0.46,2.25-0.73V38.65z"/>
	<path class="st3" d="M161.71,37.51c0.53,0.34,1.29,0.52,1.68,0.52c0.61,0,1.38-0.26,1.38-1.05c0-1.33-3.17-1.22-3.17-3.27
		c0-1.52,1.13-2.25,2.58-2.25c0.63,0,1.15,0.13,1.68,0.29l-0.12,1.18c-0.3-0.19-1.1-0.37-1.42-0.37c-0.69,0-1.3,0.29-1.3,0.89
		c0,1.49,3.18,1.06,3.18,3.4c0,1.57-1.25,2.29-2.56,2.29c-0.69,0-1.39-0.07-2.01-0.4L161.71,37.51z"/>
	<path class="st3" d="M167.3,37.51c0.53,0.34,1.29,0.52,1.68,0.52c0.61,0,1.38-0.26,1.38-1.05c0-1.33-3.17-1.22-3.17-3.27
		c0-1.52,1.13-2.25,2.58-2.25c0.63,0,1.15,0.13,1.68,0.29l-0.12,1.18c-0.3-0.19-1.1-0.37-1.42-0.37c-0.69,0-1.3,0.29-1.3,0.89
		c0,1.49,3.18,1.06,3.18,3.4c0,1.57-1.25,2.29-2.56,2.29c-0.69,0-1.39-0.07-2.01-0.4L167.3,37.51z"/>
	<path class="st3" d="M52.17,18.14c1.37,0.74,2.59,1.31,4.78,1.31c1.68,0,3.27-0.34,3.27-1.93c0-3.7-9.39-1.36-9.39-8.6
		c0-4.78,4.67-6.09,8.66-6.09c1.9,0,3.78,0.29,5.12,0.74l-1.02,4.1c-1.37-0.63-2.22-0.91-3.73-0.91c-1.34,0-3.56,0.11-3.56,1.85
		c0,3.22,9.39,1.05,9.39,8.22c0,5.15-4.32,6.54-8.74,6.54c-1.85,0-4.15-0.28-5.92-0.85L52.17,18.14z"/>
	<path class="st3" d="M83.72,1.69h5.12v8.71h0.06c1.11-1.54,2.73-2.53,4.95-2.53c4.04,0,5.66,2.85,5.66,5.92v9.25h-5.12v-7.17
		c0-2.79-0.97-3.73-2.36-3.73c-2.11,0-3.19,1.45-3.19,4.64v6.26h-5.12V1.69z"/>
	<path class="st3" d="M118.89,23.04h-4.66V20.3h-0.06c-1.02,2.14-3.07,3.07-5.41,3.07c-4.04,0-5.66-2.84-5.66-5.92V8.21h5.12v7.17
		c0,2.79,0.97,3.73,2.36,3.73c2.1,0,3.19-1.45,3.19-4.64V8.21h5.12V23.04z"/>
	<rect x="122.99" y="1.69" class="st3" width="5.12" height="21.34"/>
	<rect x="132.37" y="8.21" class="st3" width="5.12" height="14.83"/>
	<path class="st3" d="M152.44,12.36c-0.94-0.57-1.43-0.73-2.65-0.73c-2.22,0-3.93,1.54-3.93,4.1c0,2.36,1.99,3.9,4.21,3.9
		c1.17,0,1.7-0.21,2.55-0.66l0.89,3.67c-1.28,0.42-2.95,0.75-4.32,0.75c-4.9,0-8.62-2.84-8.62-7.74c0-4.92,3.73-7.77,8.62-7.77
		c1.54,0,2.99,0.26,4.16,0.83L152.44,12.36z"/>
	<path class="st3" d="M156.42,1.69h5.12v8.71h0.06c1.11-1.54,2.73-2.53,4.95-2.53c4.04,0,5.66,2.85,5.66,5.92v9.25h-5.12v-7.17
		c0-2.79-0.97-3.73-2.36-3.73c-2.11,0-3.19,1.45-3.19,4.64v6.26h-5.12V1.69z"/>
	<path class="st3" d="M134.9,6.84c1.53,0,2.77-1.24,2.77-2.77c0-1.53-1.24-2.77-2.77-2.77c-1.53,0-2.77,1.24-2.77,2.77
		C132.13,5.6,133.37,6.84,134.9,6.84"/>
	<path class="st3" d="M79.68,12.44c-0.94-0.57-1.43-0.73-2.65-0.73c-2.22,0-3.93,1.54-3.93,4.1c0,2.36,1.99,3.9,4.21,3.9
		c1.17,0,1.7-0.21,2.55-0.66l0.89,3.67c-1.28,0.43-2.96,0.75-4.32,0.75c-4.9,0-8.63-2.85-8.63-7.74c0-4.92,3.73-7.77,8.63-7.77
		c1.54,0,2.99,0.26,4.16,0.83L79.68,12.44z"/>
	<path class="st4" d="M36.25,18.23v-0.1C32.7,5.74,14.73,3.83,10.54,4.2c-0.16-0.77-0.2-0.95-0.27-1.36
		c3.71,0.26,5.37,0.46,6.11,0.58c0.16,0.02,0.15,0.02,0.24,0.04c0.41,0.07,0.63,0.27,0.75,0.27c-0.09-0.18-0.32-0.2-0.34-0.31
		c0.02-0.03,0-0.02,0.02-0.05c1.37-1.97,4.91-3.58,10.15-2.29c17.46,4.33,17.8,25.68,8.17,33.47c2.64-11.92-7.8-16.62-13.44-18.93
		c-6.35-2.59-6.75-6.28-5.73-9.91C29.9,8.09,34.1,13.53,36.25,18.23"/>
	<path class="st3" d="M26.8,35.36c1.02-3.63,0.61-7.32-5.73-9.91c-5.64-2.3-16.08-7.01-13.44-18.93C-2,14.3-1.66,35.66,15.8,39.99
		c5.24,1.3,8.78-0.32,10.15-2.29c0.02-0.03,0-0.03,0.02-0.05c-0.02-0.11-0.25-0.13-0.34-0.31c0.12-0.01,0.34,0.2,0.75,0.27
		c0.08,0.02,0.08,0.02,0.24,0.04c0.73,0.11,2.4,0.31,6.11,0.58c-0.08-0.41-0.11-0.59-0.27-1.37c-4.2,0.37-22.17-1.53-25.72-13.93
		v-0.1C8.88,27.53,13.08,32.97,26.8,35.36"/>
</g>
</svg>
